# xmcd
# Track frame offsets:
# 150
# 15970
# 30698
# 42421
# 57518
# 73299
# 88749
# 103748
# 119256
# 134787
# 148532
# 168120
# 187116
# 204423
#
# Disc length: 2970 seconds
# Revision: 0
# Processed by: cddbd v1.5.2PL0 Copyright (c) Steve Scherf et al.
# Submitted via: VisiTrax 2.11.2.271 - For more info visit www.synapsa.com
#
DISCID=cf0b980e
DTITLE=Ellis, Gary - Keep in Touch
DYEAR=2011
DGENRE=Country
TTITLE0=My Mother's Words
TTITLE1=Storms Never Last
TTITLE2=Will You Be There
TTITLE3=Mona Lisa Lost Her Smile
TTITLE4=White Crosses in the Jungle
TTITLE5=With This Ring I Thee Wed
TTITLE6=Royal Telephone
TTITLE7=Blue Side of Me
TTITLE8=I've Had a Beautiful Time
TTITLE9=Convict and the Rose
TTITLE10=Beautiful Child
TTITLE11=Back in '64
TTITLE12=Price You Pay for Loving Me, The
TTITLE13=Ise of Innisfree
EXTD=
EXTT0=
EXTT1=
EXTT2=
EXTT3=
EXTT4=
EXTT5=
EXTT6=
EXTT7=
EXTT8=
EXTT9=
EXTT10=
EXTT11=
EXTT12=
EXTT13=
PLAYORDER=
